<svg version="1.1" id="Layer_1" xmlns="http://www.w3.org/2000/svg" xmlns:xlink="http://www.w3.org/1999/xlink" x="0px" y="0px"
	 width="100%" viewBox="0 0 2000 1500" enable-background="new 0 0 2000 1500" xml:space="preserve">
<path fill="#0C1D36" opacity="1.000000" stroke="none" 
	d="
M1461.000000,1501.000000 
	C974.000122,1501.000000 487.500305,1501.000000 1.000326,1501.000000 
	C1.000218,1001.000305 1.000218,501.000580 1.000109,1.000662 
	C667.666199,1.000441 1334.332397,1.000441 2000.998901,1.000221 
	C2000.999268,500.999359 2000.999268,1000.998718 2000.999634,1500.999023 
	C1821.166626,1501.000000 1641.333374,1501.000000 1461.000000,1501.000000 
M1203.500000,250.999283 
	C1152.886963,250.999283 1102.273926,250.999283 1051.549683,250.999283 
	C1051.549683,579.018494 1051.549683,906.531494 1051.549683,1234.433228 
	C1054.075439,1234.433228 1056.225220,1234.433228 1058.374878,1234.433228 
	C1191.198730,1234.433228 1324.022461,1234.462402 1456.846313,1234.375366 
	C1466.994385,1234.368652 1477.186401,1233.996948 1487.282349,1233.016235 
	C1532.384888,1228.634766 1571.660889,1211.133911 1604.646240,1179.911865 
	C1649.113892,1137.821533 1670.350342,1084.404785 1680.002686,1025.305542 
	C1684.805054,995.902771 1685.326660,966.298462 1685.032837,936.613098 
	C1684.597656,892.619080 1674.736328,851.240417 1651.797852,813.317688 
	C1624.438965,768.087036 1585.987793,738.447998 1533.290161,728.896912 
	C1523.686279,727.156311 1513.935059,726.229004 1504.104980,724.906433 
	C1504.104980,720.703369 1504.104980,716.286377 1504.104980,711.576965 
	C1507.322998,711.256409 1510.296021,711.084106 1513.230103,710.649719 
	C1570.743164,702.135681 1610.479004,670.552307 1634.132568,617.823975 
	C1647.942017,587.040222 1653.043945,554.544861 1654.127930,521.181641 
	C1655.492310,479.184448 1652.688599,437.612915 1640.883301,397.030731 
	C1626.078247,346.135773 1597.715454,305.510406 1550.659790,279.402985 
	C1515.505981,259.898865 1477.260498,251.486588 1437.481934,251.176788 
	C1359.825439,250.572021 1282.161133,250.999329 1203.500000,250.999283 
M410.777924,251.111710 
	C410.497070,252.505219 409.973206,253.898361 409.971039,255.292313 
	C409.924042,285.290680 409.930969,315.289154 409.950989,345.287598 
	C409.951813,346.543488 410.179932,347.799255 410.334473,349.387207 
	C510.824036,349.387207 610.920349,349.387207 711.330933,349.387207 
	C711.420593,351.375824 711.558533,353.007416 711.558594,354.639038 
	C711.567566,564.961548 711.577271,775.284058 711.551147,985.606567 
	C711.548096,1010.001892 709.686584,1034.206055 702.913330,1057.794922 
	C690.002869,1102.757935 661.836182,1132.928833 616.283630,1145.330444 
	C584.311218,1154.034912 551.975037,1153.346436 519.894409,1145.521362 
	C491.884033,1138.689209 469.831696,1123.062866 453.497742,1099.170776 
	C441.661713,1081.857788 432.393005,1063.338623 426.056335,1043.401367 
	C422.490021,1032.180542 419.628052,1020.735901 416.370819,1009.113892 
	C383.022614,1017.455322 349.565247,1025.824097 315.984253,1034.223755 
	C316.095428,1035.989014 316.024658,1037.329224 316.282745,1038.602905 
	C322.897949,1071.246704 333.210693,1102.601685 349.677551,1131.677856 
	C369.081329,1165.939941 393.760651,1195.538696 427.523682,1216.614136 
	C456.254303,1234.548462 487.937836,1244.155029 521.366150,1248.207642 
	C571.215820,1254.251099 620.484131,1252.242432 668.441406,1235.926025 
	C727.745850,1215.749146 772.732056,1178.718140 800.501892,1121.981567 
	C818.458191,1085.295044 824.279358,1046.096802 824.263733,1005.626831 
	C824.167480,755.973022 824.215576,506.319214 824.215698,256.665405 
	C824.215698,254.897675 824.215698,253.129944 824.215698,251.014832 
	C686.324585,251.014832 549.031311,251.014832 410.777924,251.111710 
z"/>
<path fill="#F9CC0B" opacity="1.000000" stroke="none" 
	d="
M1204.000000,250.999283 
	C1282.161133,250.999329 1359.825439,250.572021 1437.481934,251.176788 
	C1477.260498,251.486588 1515.505981,259.898865 1550.659790,279.402985 
	C1597.715454,305.510406 1626.078247,346.135773 1640.883301,397.030731 
	C1652.688599,437.612915 1655.492310,479.184448 1654.127930,521.181641 
	C1653.043945,554.544861 1647.942017,587.040222 1634.132568,617.823975 
	C1610.479004,670.552307 1570.743164,702.135681 1513.230103,710.649719 
	C1510.296021,711.084106 1507.322998,711.256409 1504.104980,711.576965 
	C1504.104980,716.286377 1504.104980,720.703369 1504.104980,724.906433 
	C1513.935059,726.229004 1523.686279,727.156311 1533.290161,728.896912 
	C1585.987793,738.447998 1624.438965,768.087036 1651.797852,813.317688 
	C1674.736328,851.240417 1684.597656,892.619080 1685.032837,936.613098 
	C1685.326660,966.298462 1684.805054,995.902771 1680.002686,1025.305542 
	C1670.350342,1084.404785 1649.113892,1137.821533 1604.646240,1179.911865 
	C1571.660889,1211.133911 1532.384888,1228.634766 1487.282349,1233.016235 
	C1477.186401,1233.996948 1466.994385,1234.368652 1456.846313,1234.375366 
	C1324.022461,1234.462402 1191.198730,1234.433228 1058.374878,1234.433228 
	C1056.225220,1234.433228 1054.075439,1234.433228 1051.549683,1234.433228 
	C1051.549683,906.531494 1051.549683,579.018494 1051.549683,250.999283 
	C1102.273926,250.999283 1152.886963,250.999283 1204.000000,250.999283 
M1277.500000,1135.875244 
	C1327.152588,1135.875244 1376.807617,1136.154053 1426.455933,1135.696167 
	C1440.369873,1135.567871 1454.481567,1134.395264 1468.125366,1131.753662 
	C1506.334473,1124.355591 1534.979614,1103.896729 1550.685913,1067.369507 
	C1559.413574,1047.072144 1563.322021,1025.580688 1563.790527,1003.676880 
	C1564.445923,973.033875 1564.683228,942.348694 1563.790039,911.719727 
	C1563.337158,896.188599 1561.233765,880.460815 1557.750854,865.310669 
	C1548.850220,826.596191 1526.745972,798.465210 1488.553223,784.508057 
	C1470.691162,777.980530 1452.117432,775.130615 1433.203979,775.096252 
	C1344.563110,774.935120 1255.921875,774.987061 1167.280762,774.969360 
	C1166.326294,774.969177 1165.371948,775.053467 1164.315674,775.103149 
	C1164.315674,895.465942 1164.315674,1015.485596 1164.315674,1135.875244 
	C1201.919067,1135.875244 1239.209473,1135.875244 1277.500000,1135.875244 
M1212.499878,676.183105 
	C1277.828003,676.183044 1343.157715,676.421936 1408.483032,675.991333 
	C1422.376831,675.899780 1436.544678,674.687134 1450.083130,671.705994 
	C1485.322388,663.946289 1511.294922,644.160828 1524.548950,609.626160 
	C1530.140991,595.055359 1533.491821,579.862915 1533.858643,564.339172 
	C1534.578857,533.861145 1534.940186,503.356018 1534.469116,472.877258 
	C1534.269775,459.980682 1532.507080,446.932159 1529.872559,434.282227 
	C1521.786621,395.455505 1499.231812,368.959412 1461.035522,356.563934 
	C1445.692993,351.584961 1429.854614,349.361237 1413.823608,349.325562 
	C1331.664307,349.142639 1249.504272,349.203949 1167.344604,349.189331 
	C1166.385864,349.189148 1165.427002,349.313232 1164.295410,349.391205 
	C1164.295410,458.410461 1164.295410,567.127869 1164.295410,676.183105 
	C1180.224609,676.183105 1195.862183,676.183105 1212.499878,676.183105 
z"/>
<path fill="#F9CC0B" opacity="1.000000" stroke="none" 
	d="
M411.257996,251.063263 
	C549.031311,251.014832 686.324585,251.014832 824.215698,251.014832 
	C824.215698,253.129944 824.215698,254.897675 824.215698,256.665405 
	C824.215576,506.319214 824.167480,755.973022 824.263733,1005.626831 
	C824.279358,1046.096802 818.458191,1085.295044 800.501892,1121.981567 
	C772.732056,1178.718140 727.745850,1215.749146 668.441406,1235.926025 
	C620.484131,1252.242432 571.215820,1254.251099 521.366150,1248.207642 
	C487.937836,1244.155029 456.254303,1234.548462 427.523682,1216.614136 
	C393.760651,1195.538696 369.081329,1165.939941 349.677551,1131.677856 
	C333.210693,1102.601685 322.897949,1071.246704 316.282745,1038.602905 
	C316.024658,1037.329224 316.095428,1035.989014 315.984253,1034.223755 
	C349.565247,1025.824097 383.022614,1017.455322 416.370819,1009.113892 
	C419.628052,1020.735901 422.490021,1032.180542 426.056335,1043.401367 
	C432.393005,1063.338623 441.661713,1081.857788 453.497742,1099.170776 
	C469.831696,1123.062866 491.884033,1138.689209 519.894409,1145.521362 
	C551.975037,1153.346436 584.311218,1154.034912 616.283630,1145.330444 
	C661.836182,1132.928833 690.002869,1102.757935 702.913330,1057.794922 
	C709.686584,1034.206055 711.548096,1010.001892 711.551147,985.606567 
	C711.577271,775.284058 711.567566,564.961548 711.558594,354.639038 
	C711.558533,353.007416 711.420593,351.375824 711.330933,349.387207 
	C610.920349,349.387207 510.824036,349.387207 410.334473,349.387207 
	C410.179932,347.799255 409.951813,346.543488 409.950989,345.287598 
	C409.930969,315.289154 409.924042,285.290680 409.971039,255.292313 
	C409.973206,253.898361 410.497070,252.505219 411.257996,251.063263 
z"/>
<path fill="#0C1D36" opacity="1.000000" stroke="none" 
	d="
M1277.000000,1135.875244 
	C1239.209473,1135.875244 1201.919067,1135.875244 1164.315674,1135.875244 
	C1164.315674,1015.485596 1164.315674,895.465942 1164.315674,775.103149 
	C1165.371948,775.053467 1166.326294,774.969177 1167.280762,774.969360 
	C1255.921875,774.987061 1344.563110,774.935120 1433.203979,775.096252 
	C1452.117432,775.130615 1470.691162,777.980530 1488.553223,784.508057 
	C1526.745972,798.465210 1548.850220,826.596191 1557.750854,865.310669 
	C1561.233765,880.460815 1563.337158,896.188599 1563.790039,911.719727 
	C1564.683228,942.348694 1564.445923,973.033875 1563.790527,1003.676880 
	C1563.322021,1025.580688 1559.413574,1047.072144 1550.685913,1067.369507 
	C1534.979614,1103.896729 1506.334473,1124.355591 1468.125366,1131.753662 
	C1454.481567,1134.395264 1440.369873,1135.567871 1426.455933,1135.696167 
	C1376.807617,1136.154053 1327.152588,1135.875244 1277.000000,1135.875244 
z"/>
<path fill="#0C1D36" opacity="1.000000" stroke="none" 
	d="
M1211.999756,676.183105 
	C1195.862183,676.183105 1180.224609,676.183105 1164.295410,676.183105 
	C1164.295410,567.127869 1164.295410,458.410461 1164.295410,349.391205 
	C1165.427002,349.313232 1166.385864,349.189148 1167.344604,349.189331 
	C1249.504272,349.203949 1331.664307,349.142639 1413.823608,349.325562 
	C1429.854614,349.361237 1445.692993,351.584961 1461.035522,356.563934 
	C1499.231812,368.959412 1521.786621,395.455505 1529.872559,434.282227 
	C1532.507080,446.932159 1534.269775,459.980682 1534.469116,472.877258 
	C1534.940186,503.356018 1534.578857,533.861145 1533.858643,564.339172 
	C1533.491821,579.862915 1530.140991,595.055359 1524.548950,609.626160 
	C1511.294922,644.160828 1485.322388,663.946289 1450.083130,671.705994 
	C1436.544678,674.687134 1422.376831,675.899780 1408.483032,675.991333 
	C1343.157715,676.421936 1277.828003,676.183044 1211.999756,676.183105 
z"/>
</svg>